<?xml version="1.0" encoding="UTF-8"?>
<svg width="32" height="32" viewBox="0 0 32 32" version="1.1" xmlns="http://www.w3.org/2000/svg">
    <!-- Background -->
    <circle cx="16" cy="16" r="16" fill="#2d2d2d"/>
    
    <!-- Simplified Butterfly -->
    <g transform="translate(16,16) scale(1.2)">
        <!-- Wings (simplified for small size) -->
        <path d="M-6,0 C-10,-4 -9,-7 -6,-8 C-3,-9 -1,-8 0,-6 C-1,-3 -2,-1 -6,0" 
              fill="#3291ff" stroke="#3291ff" stroke-width="0.5"/>
        <path d="M6,0 C10,-4 9,-7 6,-8 C3,-9 1,-8 0,-6 C1,-3 2,-1 6,0" 
              fill="#3291ff" stroke="#3291ff" stroke-width="0.5"/>
        
        <!-- Body -->
        <path d="M0,-6 L0,1" stroke="#3291ff" stroke-width="1"/>
        
        <!-- Antennae -->
        <path d="M0,-6 Q-1.5,-7.5 -2,-9 M0,-6 Q1.5,-7.5 2,-9" 
              stroke="#3291ff" stroke-width="0.5" fill="none"/>
    </g>
    
    <!-- Analytics Line (simplified) -->
    <path d="M8,22 Q12,12 16,16 T24,10" 
          stroke="#3291ff" 
          stroke-width="1" 
          fill="none" 
          stroke-linecap="round"
          opacity="0.6"/>
</svg>
